<?xml version="1.0" encoding="utf-8"?>
<!-- Generator: Adobe Illustrator 21.1.0, SVG Export Plug-In . SVG Version: 6.00 Build 0)  -->
<svg version="1.1" id="Calque_1" xmlns="http://www.w3.org/2000/svg" xmlns:xlink="http://www.w3.org/1999/xlink" x="0px" y="0px"
     viewBox="0 0 1009.5 281" style="enable-background:new 0 0 1009.5 281;" xml:space="preserve">
<style type="text/css">
	.st0{fill:none;stroke:#FFFFFF;stroke-linecap:round;stroke-linejoin:round;stroke-dasharray:0,2.991;}
	.st1{fill:none;stroke:#FFFFFF;stroke-linecap:round;stroke-linejoin:round;stroke-dasharray:0,3.119;}
	.st2{fill:none;stroke:#FFFFFF;stroke-linecap:round;stroke-linejoin:round;stroke-dasharray:0,3.01;}
	.st3{fill:none;stroke:#FFFFFF;stroke-linecap:round;stroke-linejoin:round;stroke-dasharray:0,3;}
	.st4{fill:none;stroke:#FFFFFF;stroke-linecap:round;stroke-linejoin:round;stroke-dasharray:0,3.073;}
	.st5{fill:none;stroke:#FFFFFF;stroke-linecap:round;stroke-linejoin:round;stroke-dasharray:0,3.076;}
	.st6{fill:none;stroke:#FFFFFF;stroke-linecap:round;stroke-linejoin:round;stroke-dasharray:0,2.949;}
	.st7{fill:none;stroke:#FFFFFF;stroke-linecap:round;stroke-linejoin:round;stroke-dasharray:0,3.043;}
	.st8{fill:none;stroke:#FFFFFF;stroke-linecap:round;stroke-linejoin:round;stroke-dasharray:0,2.936;}
	.st9{fill:none;stroke:#FFFFFF;stroke-linecap:round;stroke-linejoin:round;stroke-dasharray:0,3.038;}
	.st10{fill:none;stroke:#FFFFFF;stroke-linecap:round;stroke-linejoin:round;stroke-dasharray:0,3.019;}
	.st11{fill:none;stroke:#FFFFFF;stroke-linecap:round;stroke-linejoin:round;stroke-dasharray:0,3.065;}
	.st12{fill:none;stroke:#FFFFFF;stroke-linecap:round;stroke-linejoin:round;stroke-dasharray:0,3.014;}
	.st13{fill:none;stroke:#FFFFFF;stroke-linecap:round;stroke-linejoin:round;stroke-dasharray:0,2.984;}
	.st14{fill:none;stroke:#FFFFFF;stroke-linecap:round;stroke-linejoin:round;stroke-dasharray:0,2.962;}
	.st15{fill:none;stroke:#FFFFFF;stroke-linecap:round;stroke-linejoin:round;stroke-dasharray:0,2.982;}
	.st16{fill:none;stroke:#FFFFFF;stroke-linecap:round;stroke-linejoin:round;stroke-dasharray:0,3.082;}
	.st17{fill:none;stroke:#FFFFFF;stroke-linecap:round;stroke-linejoin:round;stroke-dasharray:0,2.969;}
	.st18{fill:none;stroke:#FFFFFF;stroke-linecap:round;stroke-linejoin:round;stroke-dasharray:0,3.007;}
	.st19{fill:none;stroke:#FFFFFF;stroke-linecap:round;stroke-linejoin:round;stroke-dasharray:0,2.942;}
	.st20{fill:none;stroke:#FFFFFF;stroke-linecap:round;stroke-linejoin:round;stroke-dasharray:0,2.958;}
	.st21{fill:none;stroke:#FFFFFF;stroke-linecap:round;stroke-linejoin:round;stroke-dasharray:0,2.997;}
	.st22{fill:none;stroke:#FFFFFF;stroke-linecap:round;stroke-linejoin:round;stroke-dasharray:0,2.934;}
	.st23{fill:none;stroke:#FFFFFF;stroke-linecap:round;stroke-linejoin:round;stroke-dasharray:0,2.967;}
	.st24{fill:none;stroke:#FFFFFF;stroke-linecap:round;stroke-linejoin:round;stroke-dasharray:0,3.049;}
	.st25{fill:none;stroke:#FFFFFF;stroke-linecap:round;stroke-linejoin:round;stroke-dasharray:0,2.992;}
	.st26{fill:none;stroke:#FFFFFF;stroke-linecap:round;stroke-linejoin:round;stroke-dasharray:0,2.964;}
	.st27{fill:none;stroke:#FFFFFF;stroke-linecap:round;stroke-linejoin:round;stroke-dasharray:0,3.06;}
	.st28{fill:none;stroke:#FFFFFF;stroke-linecap:round;stroke-linejoin:round;stroke-dasharray:0,3.046;}
	.st29{fill:none;stroke:#FFFFFF;stroke-linecap:round;stroke-linejoin:round;stroke-dasharray:0,2.988;}
	.st30{fill:none;stroke:#FFFFFF;stroke-linecap:round;stroke-linejoin:round;stroke-dasharray:0,2.968;}
	.st31{fill:none;stroke:#FFFFFF;stroke-linecap:round;stroke-linejoin:round;stroke-dasharray:0,3.045;}
	.st32{fill:none;stroke:#FFFFFF;stroke-linecap:round;stroke-linejoin:round;stroke-dasharray:0,2.98;}
	.st33{fill:none;stroke:#FFFFFF;stroke-linecap:round;stroke-linejoin:round;stroke-dasharray:0,2.933;}
	.st34{fill:none;stroke:#FFFFFF;stroke-linecap:round;stroke-linejoin:round;stroke-dasharray:0,3.024;}
	.st35{fill:none;stroke:#FFFFFF;stroke-linecap:round;stroke-linejoin:round;stroke-dasharray:0,3.096;}
	.st36{fill:none;stroke:#FFFFFF;stroke-linecap:round;stroke-linejoin:round;stroke-dasharray:0,3.168;}
	.st37{fill:none;stroke:#FFFFFF;stroke-linecap:round;stroke-linejoin:round;}
	.st38{fill:#00B1C6;}
	.st39{fill:#FFC302;}
	.st40{fill:#1B1B1B;}
</style>
  <g>
	<path class="st0" d="M7.1,57.8c-0.8,1.2-1.3,2.6-1.9,4.1"/>
    <path class="st1" d="M3.6,66.3C2.2,70.8,1.2,75.1,0.8,80"/>
    <path class="st2" d="M0.5,84.5c-0.5,24.6,12.3,48.3,28.8,65.9"/>
    <path class="st3" d="M32.5,153.7c35.7,35,97.7,40.8,141.3,17.8"/>
    <path class="st4" d="M177.8,169.2c9.4-5.4,17.9-11.9,25.7-19.4"/>
    <path class="st5" d="M206.4,146.3c4.5-6.3,7.8-13.2,9.9-20.7"/>
    <path class="st6" d="M217.4,121.2c3.7-16.9,0.5-38.5-11.6-51.3"/>
    <path class="st7" d="M202.6,66.8c-21.5-18.6-60.1-18.4-78.2,4.6"/>
    <path class="st8" d="M121.7,75c-9.2,14.2-11.3,33.1-8.4,49.5"/>
    <path class="st9" d="M114.4,128.9c2.2,8.3,5.3,16.4,9.3,24"/>
    <path class="st10" d="M125.9,156.9c7.2,11.7,17.4,20.7,28.6,28.6"/>
    <path class="st6" d="M158.2,188c18.2,11.8,41.1,18.4,62.9,17.8"/>
    <path class="st11" d="M225.6,205.6c9.7-1,19.1-3.2,28.2-6.7"/>
    <path class="st12" d="M258.1,197.3c12.8-4.7,25.1-10.5,36.2-18.3"/>
    <path class="st13" d="M297.9,176.3c13.1-10.2,22.7-23.5,31.1-37.8"/>
    <path class="st14" d="M331.2,134.6c4-7.4,8.1-14.7,12.2-22"/>
    <path class="st15" d="M345.7,108.8c6.6-10.6,14.1-20.4,22.2-29.9"/>
    <path class="st12" d="M370.9,75.5c28.6-32.2,67-53.5,108-65.9"/>
    <path class="st16" d="M483.3,8.2c10.3-3.1,20.9-5.5,31.5-7.1"/>
    <path class="st17" d="M519.3,0.8c12.4-0.7,24.7,0,37,2"/>
    <path class="st18" d="M560.7,3.5c28.7,5.2,57.8,19,74.6,43.7"/>
    <path class="st19" d="M637.7,50.9c10.6,17.5,16.2,40.3,13.4,60.7"/>
    <path class="st20" d="M650.4,115.9c-5.7,29.1-26.4,52.7-51.5,67.2"/>
    <path class="st21" d="M595,185.3c-22,11.7-49.1,17.6-73.9,12.8"/>
    <path class="st22" d="M516.7,197.2c-9.1-2.2-17.5-6.2-24.9-12"/>
    <path class="st23" d="M488.6,182.2c-2.4-2.5-4.8-5-7.2-7.5"/>
    <path class="st24" d="M479.1,170.9c-3.4-8.2-3.9-16.6-1.5-25.4"/>
    <path class="st25" d="M478.8,141.1c7.3-24.1,31.2-41.8,53.9-50.5"/>
    <path class="st26" d="M536.9,89.3c13.8-4,27.9-6.6,42.2-7.6"/>
    <path class="st27" d="M583.6,81.3c16.9-1.1,33.6,0.1,50.2,3.7"/>
    <path class="st28" d="M638.3,86c13.6,3.1,25.7,9.2,36.4,18.2"/>
    <path class="st29" d="M678.1,107.2c10.9,9.6,19.9,20.9,26.9,33.7"/>
    <path class="st30" d="M707.1,144.8c15.7,30.2,19.5,66.3,42.2,92.7"/>
    <path class="st0" d="M752.4,240.8c21.1,22.1,52.5,32.4,82.4,34"/>
    <path class="st31" d="M839.3,275c19.9,0.4,39.4-2.5,58.4-8.8"/>
    <path class="st32" d="M902,264.8c30.3-10.5,55.5-28.2,76-53.1"/>
    <path class="st33" d="M980.8,208.4c10-11.7,17.2-24.9,21.7-39.6"/>
    <path class="st34" d="M1003.8,164.5c4.1-14.2,5.8-28.6,5.1-43.4"/>
    <path class="st35" d="M1008.2,116.6c-2.4-11.8-6.8-22.7-13.4-32.8"/>
    <path class="st36" d="M992.1,79.9c-2.8-4.1-5.6-7.6-9.5-10.6"/>
    <path class="st37" d="M981.4,68.4L981.4,68.4 M993.9,82.5L993.9,82.5 M1008.7,119.6L1008.7,119.6 M1002.9,167.4L1002.9,167.4
		 M978.9,210.6L978.9,210.6 M899.1,265.7L899.1,265.7 M836.2,274.9L836.2,274.9 M750.3,238.6L750.3,238.6 M705.7,142.2L705.7,142.2
		 M675.9,105.2L675.9,105.2 M635.3,85.3L635.3,85.3 M580.6,81.6L580.6,81.6 M534.1,90.1L534.1,90.1 M478,144L478,144 M480.3,173.7
		L480.3,173.7 M490.7,184.3L490.7,184.3 M519.6,197.8L519.6,197.8 M597.6,183.9L597.6,183.9 M650.9,113L650.9,113 M636.1,48.4
		L636.1,48.4 M557.8,3L557.8,3 M516.3,0.9L516.3,0.9 M480.3,9.1L480.3,9.1 M369,77.8L369,77.8 M344.2,111.3L344.2,111.3
		 M329.8,137.2L329.8,137.2 M295.5,178.1L295.5,178.1 M255.3,198.3L255.3,198.3 M222.6,205.8L222.6,205.8 M155.7,186.4L155.7,186.4
		 M124.4,154.3L124.4,154.3 M113.6,126L113.6,126 M123.4,72.6L123.4,72.6 M204.8,68.8L204.8,68.8 M216.7,124.1L216.7,124.1
		 M204.5,148.7L204.5,148.7 M175.1,170.7L175.1,170.7 M30.4,151.5L30.4,151.5 M0.6,81.5L0.6,81.5 M4.7,63.3L4.7,63.3 M9.1,55.7
		L9.1,55.7"/>
    <path class="st38" d="M163.8,63.3c5.7,1.1,11.2-2.7,12.2-8.3s-2.6-11.2-8.3-12.2c-5.7-1.1-11.2,2.7-12.2,8.3S158.1,62.2,163.8,63.3
		"/>
    <path class="st39" d="M160.9,52.1L160.9,52.1c0,0,3.6-2.3,6.3-1.7l-1.1,5.7C163.4,55.5,160.9,52.1,160.9,52.1"/>
    <path class="st40" d="M157.9,57c-0.2-1,0.8-2.7,2.6-4.1c0.7,1,1.6,1.9,2.5,2.6c1.7,1.2,3.6,1.8,5.5,1.7c-0.9,0.4-1.8,0.8-3,1.1
		c-1.9,0.5-3.8,0.6-5.3,0.3C159,58.3,158.1,57.7,157.9,57 M159.9,46.4c0.8-1.2,4.1-0.8,7.6,1.6c0.9,0.7,1.7,1.4,2.4,2.1
		c-1.7-0.7-3.8-0.9-5.7-0.4c-1.2,0.3-2.3,0.8-3.3,1.4C159.7,49.2,159.4,47.3,159.9,46.4 M171.8,54.2c-0.1,0.2-0.2,0.5-0.3,0.7
		c-0.5,0.6-1.6,1-2.9,1.1c-0.6,0-1.2,0-1.8-0.2l0.9-5c0.6,0.1,1.2,0.3,1.7,0.5c1.1,0.5,2,1.3,2.3,2.1
		C171.8,53.6,171.8,53.9,171.8,54.2 M163.9,54.5l0.7-3.6c0.5-0.1,1.1-0.2,1.6-0.2l-0.9,4.6C164.8,55.1,164.3,54.8,163.9,54.5
		 M161.5,52.2c0.4-0.3,0.9-0.5,1.4-0.7l-0.4,1.9C162.1,53,161.8,52.6,161.5,52.2 M165.9,59.4c2.6-0.7,4.7-1.8,5.9-3.1l0.7,0.5
		c0.3,0.2,0.6,0.1,0.8-0.1c0.2-0.3,0.1-0.7-0.1-0.8l-0.6-0.5c0.2-0.3,0.3-0.7,0.4-1c0.1-0.4,0.1-0.7,0-1.1l0.8-0.2
		c0.3-0.1,0.5-0.4,0.4-0.8c-0.1-0.3-0.4-0.5-0.7-0.4l-0.9,0.2c-0.7-1.7-2.2-3.5-4.4-5.1c-3.8-2.7-7.9-3.3-9.2-1.3
		c-0.2,0.3-0.4,0.7-0.4,1.1c-0.3,1.4,0.3,3.3,1.4,5.1c-1.7,1.3-2.9,2.9-3.1,4.3c-0.1,0.4-0.1,0.8,0,1.1c0.3,1.2,1.4,2.1,3.3,2.4
		C161.7,60.1,163.8,59.9,165.9,59.4"/>
    <path class="st38" d="M556.3,73.4c-5.8,0.6-9.9,5.8-9.3,11.6s5.8,9.9,11.5,9.3c5.8-0.6,9.9-5.8,9.3-11.6
		C567.2,77,562,72.8,556.3,73.4"/>
    <path class="st39" d="M562.3,83.3L562.3,83.3c0,0-2.8,3.2-5.6,3.5l-0.6-5.8C559,80.8,562.3,83.3,562.3,83.3"/>
    <path class="st40" d="M563.7,77.8c0.5,0.9,0,2.8-1.3,4.7c-1-0.8-2.1-1.3-3.2-1.7c-1.9-0.6-4-0.7-5.7-0.1c0.7-0.7,1.5-1.3,2.5-1.9
		c1.7-1,3.5-1.7,5-1.8C562.4,76.9,563.3,77.1,563.7,77.8 M564.9,88.5c-0.5,1.4-3.7,2-7.7,0.7c-1.1-0.4-2-0.8-2.9-1.3
		c1.9,0.2,3.8-0.2,5.6-1.3c1-0.6,2-1.4,2.7-2.3C564.3,85.7,565.2,87.5,564.9,88.5 M551.3,84.5c0-0.2,0-0.5,0.1-0.8
		c0.3-0.7,1.3-1.5,2.4-1.9c0.5-0.2,1.2-0.3,1.8-0.4l0.5,5.1c-0.6,0.1-1.2,0.1-1.8,0c-1.2-0.2-2.3-0.7-2.8-1.3
		C551.4,85,551.3,84.8,551.3,84.5 M558.7,81.9l0.4,3.7c-0.5,0.3-1,0.5-1.5,0.7l-0.5-4.7C557.7,81.6,558.2,81.7,558.7,81.9
		 M561.7,83.4c-0.3,0.4-0.7,0.7-1.1,1.1l-0.2-1.9C560.8,82.8,561.3,83.1,561.7,83.4 M555.4,77.7c-2.3,1.4-4,3.1-4.8,4.7l-0.8-0.3
		c-0.3-0.1-0.7,0.1-0.8,0.4c-0.1,0.3,0.1,0.7,0.4,0.8l0.8,0.3c-0.1,0.3-0.1,0.7-0.1,1.1c0,0.4,0.1,0.7,0.3,1l-0.7,0.4
		c-0.3,0.2-0.4,0.6-0.2,0.8s0.5,0.4,0.8,0.2l0.8-0.5c1.1,1.4,3.2,2.7,5.7,3.6c4.4,1.5,8.5,0.9,9.2-1.4c0.1-0.4,0.2-0.8,0.1-1.2
		c-0.2-1.4-1.3-3.1-2.8-4.4c1.2-1.8,1.9-3.7,1.7-5c0-0.4-0.2-0.7-0.3-1c-0.6-1.1-2-1.6-3.8-1.4C559.2,75.9,557.3,76.6,555.4,77.7"/>
    <path class="st38" d="M880.2,260.1c5.7-0.7,11,3.4,11.6,9.2s-3.4,11-9.2,11.6c-5.7,0.7-11-3.4-11.6-9.2
		C870.4,266,874.5,260.8,880.2,260.1"/>
    <path class="st39" d="M876.6,271.1L876.6,271.1c0,0,3.4,2.5,6.2,2.2l-0.7-5.8C879.3,267.9,876.6,271.1,876.6,271.1"/>
    <path class="st40" d="M874,266c-0.3,1,0.6,2.8,2.3,4.3c0.8-1,1.7-1.8,2.7-2.4c1.7-1.1,3.7-1.5,5.6-1.4c-0.8-0.5-1.8-0.9-2.9-1.3
		c-1.9-0.6-3.8-0.8-5.3-0.6C875.1,264.8,874.2,265.3,874,266 M875.2,276.7c0.8,1.2,4.1,1.1,7.7-1.1c1-0.6,1.8-1.3,2.5-1.9
		c-1.8,0.6-3.8,0.6-5.7,0c-1.2-0.4-2.2-1-3.2-1.7C875.2,273.9,874.7,275.8,875.2,276.7 M887.6,269.8c0-0.2-0.1-0.5-0.3-0.8
		c-0.5-0.6-1.6-1.1-2.8-1.3c-0.6-0.1-1.2-0.1-1.8,0l0.6,5.1c0.6-0.1,1.2-0.2,1.8-0.4c1.2-0.4,2.1-1.1,2.4-1.9
		C887.6,270.3,887.6,270.1,887.6,269.8 M879.7,268.9l0.4,3.7c0.5,0.2,1,0.3,1.6,0.3l-0.5-4.7C880.7,268.4,880.2,268.6,879.7,268.9
		 M877.2,271.1c0.4,0.3,0.8,0.6,1.3,0.8l-0.2-1.9C877.9,270.3,877.5,270.7,877.2,271.1 M882,264.1c2.5,0.8,4.6,2.1,5.7,3.5l0.8-0.5
		c0.3-0.2,0.7-0.1,0.8,0.2c0.2,0.3,0.1,0.7-0.2,0.8l-0.7,0.5c0.2,0.3,0.3,0.7,0.3,1c0,0.4,0,0.7-0.1,1.1l0.8,0.3
		c0.3,0.1,0.5,0.5,0.4,0.8s-0.5,0.5-0.8,0.4l-0.8-0.3c-0.8,1.6-2.5,3.4-4.7,4.7c-4,2.4-8.1,2.8-9.3,0.7c-0.2-0.3-0.3-0.7-0.4-1.1
		c-0.2-1.4,0.5-3.3,1.7-5c-1.6-1.4-2.6-3.1-2.8-4.5c0-0.4,0-0.8,0.1-1.1c0.4-1.2,1.6-2,3.4-2.2C877.9,263.2,880,263.5,882,264.1"/>
</g>
</svg>
