<svg xmlns="http://www.w3.org/2000/svg" viewBox="0 0 96.8 22.47">
  <defs>
    <style>
      .cls-1,.cls-2,.cls-3{fill:none;stroke:#fff;stroke-width:1.12px;}.cls-1,.cls-2{stroke-linecap:round;stroke-linejoin:round;}.cls-1{stroke-dasharray:0
      3.47;}.cls-2{stroke-dasharray:0 3.29;}.cls-4{fill:#1c1c1c;}
    </style>
  </defs>
  <g>
    <path class="cls-1" d="M93,19c-11.83-6-26-9.31-41.89-9.54"/>
    <path class="cls-2" d="M46.12,9.47C28.69,10,12.83,14.57.56,21.85"/>
    <polyline class="cls-3" points="94.37 15.22 96.09 20.6 90.59 21.92"/>
    <path class="cls-4"
          d="M40.14,14.62c-.48-1,.36-3.16,2.07-5.08a13.1,13.1,0,0,0,3.42,2.29,10.79,10.79,0,0,0,6.61.77,17.82,17.82,0,0,1-3.14,1.8,14.85,14.85,0,0,1-6,1.41c-1.54,0-2.63-.44-3-1.19m0-12.07c.69-1.49,4.55-1.76,9,.22a17,17,0,0,1,3.14,1.8,10.71,10.71,0,0,0-6.61.77A13.15,13.15,0,0,0,42.2,7.61c-1.7-1.92-2.53-4-2.06-5.07m15.16,6a2.6,2.6,0,0,1-.23.88,4.84,4.84,0,0,1-3,1.79,7.82,7.82,0,0,1-2.07.2V5.72a9.08,9.08,0,0,1,2.07.2,4.84,4.84,0,0,1,3,1.79,2.39,2.39,0,0,1,.23.88m-8.91,2.08V6.5a9.41,9.41,0,0,1,1.75-.56v5.28a9.4,9.4,0,0,1-1.75-.56M43.17,8.58A12.63,12.63,0,0,1,44.56,7.5V9.67a11.2,11.2,0,0,1-1.38-1.08m6.53,7.07A14.63,14.63,0,0,0,55.81,11l.93.44a.72.72,0,0,0,.93-.33.69.69,0,0,0-.33-.91l-.85-.41a2.64,2.64,0,0,0,.21-1.2,2.75,2.75,0,0,0-.21-1.19L57.34,7a.69.69,0,0,0,.33-.91.71.71,0,0,0-.93-.33l-.93.44a14.54,14.54,0,0,0-6.1-4.67C44.77-.67,40-.47,38.88,2a3,3,0,0,0-.27,1.28c0,1.63,1.08,3.61,2.63,5.31A9,9,0,0,0,38.64,14a2.9,2.9,0,0,0,.24,1.2c.59,1.25,2.09,2,4.24,2a16.64,16.64,0,0,0,6.58-1.54"/>
  </g>
</svg>