<svg xmlns="http://www.w3.org/2000/svg" viewBox="0 0 354.4 97.4"><defs><style>.cls-1{fill:#00b1c6;}.cls-2{fill:#f79bc0;}.cls-3{fill:#fb71a7;}.cls-4{fill:#f97b7b;}.cls-5{fill:#b5d276;}.cls-6{fill:#b9dabd;}</style></defs><title>Fichier 8</title><g id="Calque_2" data-name="Calque 2"><g id="Calque_1-2" data-name="Calque 1"><path class="cls-1" d="M326.7,28.9l27.7,4.6V0c-21.5,4.2-49.1,13.4-69.1,34.1A104.56,104.56,0,0,0,267.7,59l30.1,4.9Z"/><polygon class="cls-2" points="303.7 66.2 315.4 97.4 320.7 97.4 309.3 67.2 331.1 40.7 354.4 44.5 354.4 39.6 329.1 35.4 303.7 66.2"/><path class="cls-3" d="M125.1,97.4C115.6,84,100.3,67.6,79.4,60.7a72.08,72.08,0,0,0-17.6-3.4C29.8,55,0,72,0,72A131.78,131.78,0,0,0,16,97.4Z"/><polygon class="cls-1" points="241.7 97.4 241.1 95.8 262.8 69.3 296.7 74.8 305.3 97.4 310.5 97.4 300.3 70.4 260.8 64 235.6 94.9 236.5 97.4 241.7 97.4"/><path class="cls-4" d="M230.1,97.4l-1.4-3.6,29.7-36.3,4.5.7a143.91,143.91,0,0,0-24.5-21.7s-21.7,27.3-25.6,60.9Z"/><path class="cls-5" d="M150.3,97.4c3.6-30.8-10.2-60-10.2-60S94.7,53.5,79.3,90.2a68.36,68.36,0,0,0-2.5,7.2Z"/><path class="cls-6" d="M232.2,89.5c-6.2-9.6-14.5-19-25.4-25.6A70.87,70.87,0,0,0,191,57c-29.6-8.9-61.1.7-61.1.7a129.59,129.59,0,0,0,16.6,39.7h83.6l-1.4-3.6Z"/></g></g></svg>